<svg width="168" height="168" fill="none" xmlns="http://www.w3.org/2000/svg"><ellipse cx="2.467" cy="2.462" rx="2.467" ry="2.462" fill="#fff"/><ellipse cx="17.267" cy="2.462" rx="2.467" ry="2.462" fill="#fff"/><ellipse cx="2.467" cy="17.231" rx="2.467" ry="2.462" fill="#fff"/><ellipse cx="17.269" cy="17.231" rx="2.467" ry="2.462" fill="#fff"/><ellipse cx="2.467" cy="32.003" rx="2.467" ry="2.462" fill="#fff"/><ellipse cx="17.269" cy="32.003" rx="2.467" ry="2.462" fill="#fff"/><ellipse cx="2.467" cy="46.772" rx="2.467" ry="2.462" fill="#fff"/><ellipse cx="17.269" cy="46.772" rx="2.467" ry="2.462" fill="#fff"/><ellipse cx="2.467" cy="61.542" rx="2.467" ry="2.462" fill="#fff"/><ellipse cx="17.269" cy="61.542" rx="2.467" ry="2.462" fill="#fff"/><ellipse cx="2.467" cy="76.311" rx="2.467" ry="2.462" fill="#fff"/><ellipse cx="17.269" cy="76.311" rx="2.467" ry="2.462" fill="#fff"/><ellipse cx="2.467" cy="91.083" rx="2.467" ry="2.462" fill="#fff"/><ellipse cx="17.269" cy="91.083" rx="2.467" ry="2.462" fill="#fff"/><ellipse cx="2.467" cy="105.852" rx="2.467" ry="2.462" fill="#fff"/><ellipse cx="17.269" cy="105.852" rx="2.467" ry="2.462" fill="#fff"/><ellipse cx="2.467" cy="120.624" rx="2.467" ry="2.462" fill="#fff"/><ellipse cx="17.269" cy="120.624" rx="2.467" ry="2.462" fill="#fff"/><ellipse cx="2.467" cy="135.393" rx="2.467" ry="2.462" fill="#fff"/><ellipse cx="17.269" cy="135.393" rx="2.467" ry="2.462" fill="#fff"/><ellipse cx="2.467" cy="150.163" rx="2.467" ry="2.462" fill="#fff"/><ellipse cx="17.269" cy="150.163" rx="2.467" ry="2.462" fill="#fff"/><ellipse cx="32.064" cy="150.163" rx="2.467" ry="2.462" fill="#fff"/><ellipse cx="46.865" cy="150.163" rx="2.467" ry="2.462" fill="#fff"/><ellipse cx="61.664" cy="150.163" rx="2.467" ry="2.462" fill="#fff"/><ellipse cx="76.465" cy="150.163" rx="2.467" ry="2.462" fill="#fff"/><ellipse cx="91.267" cy="150.163" rx="2.467" ry="2.462" fill="#fff"/><ellipse cx="106.064" cy="150.163" rx="2.467" ry="2.462" fill="#fff"/><ellipse cx="2.467" cy="164.934" rx="2.467" ry="2.462" fill="#fff"/><ellipse cx="17.269" cy="164.934" rx="2.467" ry="2.462" fill="#fff"/><ellipse cx="32.064" cy="164.934" rx="2.467" ry="2.462" fill="#fff"/><ellipse cx="46.865" cy="164.934" rx="2.467" ry="2.462" fill="#fff"/><ellipse cx="61.664" cy="164.934" rx="2.467" ry="2.462" fill="#fff"/><ellipse cx="76.465" cy="164.934" rx="2.467" ry="2.462" fill="#fff"/><ellipse cx="91.267" cy="164.934" rx="2.467" ry="2.462" fill="#fff"/><ellipse cx="106.064" cy="164.934" rx="2.467" ry="2.462" fill="#fff"/><ellipse cx="120.271" cy="150.163" rx="2.467" ry="2.462" fill="#fff"/><ellipse cx="135.076" cy="150.163" rx="2.467" ry="2.462" fill="#fff"/><ellipse cx="149.869" cy="150.163" rx="2.467" ry="2.462" fill="#fff"/><ellipse cx="164.672" cy="150.163" rx="2.467" ry="2.462" fill="#fff"/><ellipse cx="120.271" cy="164.934" rx="2.467" ry="2.462" fill="#fff"/><ellipse cx="135.076" cy="164.934" rx="2.467" ry="2.462" fill="#fff"/><ellipse cx="149.869" cy="164.934" rx="2.467" ry="2.462" fill="#fff"/><ellipse cx="164.672" cy="164.934" rx="2.467" ry="2.462" fill="#fff"/></svg>