<svg width="100" height="100" fill="none" xmlns="http://www.w3.org/2000/svg"><path fill-rule="evenodd" clip-rule="evenodd" d="M78.011 54.56l-5.662-.019a.872.872 0 110-1.743l5.66.02a11.257 11.257 0 000-22.512c-.2 0-.41 0-.646.019a.869.869 0 01-.83-.485 13.686 13.686 0 00-19.66-5.454.87.87 0 01-1.284-.415 19.345 19.345 0 00-37.08 10.276.874.874 0 01-.668.993A8.828 8.828 0 0019.8 52.677l18.299.048a.871.871 0 110 1.743l-18.3-.046a10.574 10.574 0 01-3.123-20.675A21.085 21.085 0 0137.59 9.973 21.087 21.087 0 0156.819 22.4a15.44 15.44 0 0121.022 6.17h.172a13 13 0 010 26l-.002-.01z" fill="#F83718"/><path fill-rule="evenodd" clip-rule="evenodd" d="M25.268 31.02a.871.871 0 01-.871-.872 13.966 13.966 0 0113.949-13.952.874.874 0 110 1.745A12.221 12.221 0 0026.14 30.148a.87.87 0 01-.872.871zM81.94 19.684a5.23 5.23 0 115.234-5.23 5.238 5.238 0 01-5.233 5.23zm0-8.718a3.488 3.488 0 100 6.975 3.488 3.488 0 000-6.975zM20.038 82.463a6.975 6.975 0 116.974-6.975 6.985 6.985 0 01-6.974 6.975zm0-12.209a5.234 5.234 0 105.23 5.233 5.238 5.238 0 00-5.23-5.233z" fill="#F83718"/><rect x="38.714" y="35.072" width="33.01" height="54.612" rx="4.976" fill="#fff" stroke="#F83718" stroke-width="1.699"/><path d="M38.592 78.64h33.01" stroke="#F83718" stroke-width="1.699"/><circle cx="55.34" cy="83.98" r="2.184" fill="#F83718" stroke="#F83718" stroke-width="1.456"/><path fill-rule="evenodd" clip-rule="evenodd" d="M48.646 62.957a.528.528 0 01-.316-.103l-2.021-1.472-2.023 1.469a.536.536 0 01-.826-.6l.772-2.377-2.022-1.469a.539.539 0 01.316-.971h2.498l.773-2.377a.537.537 0 011.015 0l.773 2.377h2.498a.538.538 0 01.316.971l-2.023 1.47.773 2.377a.537.537 0 01-.196.599.53.53 0 01-.307.106zm9.802-2.735a.53.53 0 01-.316-.103l-2.9-2.1-2.9 2.1a.536.536 0 01-.827-.6l1.107-3.4-2.9-2.102a.536.536 0 01.314-.972h3.577l1.105-3.402a.538.538 0 011.023 0l1.104 3.402h3.577a.537.537 0 01.315.971l-2.9 2.103 1.105 3.4a.535.535 0 01-.484.703zm3.577 2.735a.537.537 0 01-.51-.703l.772-2.377-2.022-1.468a.536.536 0 01.314-.972h2.5l.771-2.376a.54.54 0 01.828-.269c.091.067.16.16.195.269l.771 2.376h2.5a.537.537 0 01.314.972l-2.02 1.468.77 2.378a.536.536 0 01-.826.6l-2.017-1.472-2.03 1.471a.53.53 0 01-.31.103z" fill="#F83718"/></svg>