<svg width="576" height="373" fill="none" xmlns="http://www.w3.org/2000/svg"><ellipse cx="410.467" cy="2.462" rx="2.467" ry="2.462" fill="#fff"/><ellipse cx="425.267" cy="2.462" rx="2.467" ry="2.462" fill="#fff"/><ellipse cx="454.863" cy="2.462" rx="2.467" ry="2.462" fill="#fff"/><ellipse cx="469.664" cy="2.462" rx="2.467" ry="2.462" fill="#fff"/><ellipse cx="484.463" cy="2.462" rx="2.467" ry="2.462" fill="#fff"/><ellipse cx="499.265" cy="2.462" rx="2.467" ry="2.462" fill="#fff"/><ellipse cx="514.062" cy="2.462" rx="2.467" ry="2.462" fill="#fff"/><ellipse cx="410.465" cy="17.231" rx="2.467" ry="2.462" fill="#fff"/><ellipse cx="425.269" cy="17.231" rx="2.467" ry="2.462" fill="#fff"/><ellipse cx="440.064" cy="17.231" rx="2.467" ry="2.462" fill="#fff"/><ellipse cx="469.664" cy="17.231" rx="2.467" ry="2.462" fill="#fff"/><ellipse cx="484.463" cy="17.231" rx="2.467" ry="2.462" fill="#fff"/><ellipse cx="499.265" cy="17.231" rx="2.467" ry="2.462" fill="#fff"/><ellipse cx="514.064" cy="17.231" rx="2.467" ry="2.462" fill="#fff"/><ellipse cx="410.465" cy="32.003" rx="2.467" ry="2.462" fill="#fff"/><ellipse cx="425.269" cy="32.003" rx="2.467" ry="2.462" fill="#fff"/><ellipse cx="440.064" cy="32.003" rx="2.467" ry="2.462" fill="#fff"/><ellipse cx="454.863" cy="32.003" rx="2.467" ry="2.462" fill="#fff"/><ellipse cx="484.463" cy="32.003" rx="2.467" ry="2.462" fill="#fff"/><ellipse cx="499.265" cy="32.003" rx="2.467" ry="2.462" fill="#fff"/><ellipse cx="514.064" cy="32.003" rx="2.467" ry="2.462" fill="#fff"/><ellipse cx="410.465" cy="46.773" rx="2.467" ry="2.462" fill="#fff"/><ellipse cx="425.269" cy="46.773" rx="2.467" ry="2.462" fill="#fff"/><ellipse cx="440.064" cy="46.773" rx="2.467" ry="2.462" fill="#fff"/><ellipse cx="454.863" cy="46.773" rx="2.467" ry="2.462" fill="#fff"/><ellipse cx="469.664" cy="46.773" rx="2.467" ry="2.462" fill="#fff"/><ellipse cx="499.265" cy="46.773" rx="2.467" ry="2.462" fill="#fff"/><ellipse cx="514.064" cy="46.773" rx="2.467" ry="2.462" fill="#fff"/><ellipse cx="410.465" cy="61.542" rx="2.467" ry="2.462" fill="#fff"/><ellipse cx="425.269" cy="61.542" rx="2.467" ry="2.462" fill="#fff"/><ellipse cx="440.064" cy="61.542" rx="2.467" ry="2.462" fill="#fff"/><ellipse cx="454.863" cy="61.542" rx="2.467" ry="2.462" fill="#fff"/><ellipse cx="469.664" cy="61.542" rx="2.467" ry="2.462" fill="#fff"/><ellipse cx="484.463" cy="61.542" rx="2.467" ry="2.462" fill="#fff"/><ellipse cx="499.265" cy="61.542" rx="2.467" ry="2.462" fill="#fff"/><ellipse cx="514.064" cy="61.541" rx="2.467" ry="2.462" fill="#fff"/><ellipse cx="410.465" cy="76.312" rx="2.467" ry="2.462" fill="#fff"/><ellipse cx="425.269" cy="76.312" rx="2.467" ry="2.462" fill="#fff"/><ellipse cx="440.064" cy="76.312" rx="2.467" ry="2.462" fill="#fff"/><ellipse cx="454.863" cy="76.312" rx="2.467" ry="2.462" fill="#fff"/><ellipse cx="469.664" cy="76.312" rx="2.467" ry="2.462" fill="#fff"/><ellipse cx="484.463" cy="76.312" rx="2.467" ry="2.462" fill="#fff"/><ellipse cx="514.064" cy="76.312" rx="2.467" ry="2.462" fill="#fff"/><ellipse cx="410.465" cy="91.083" rx="2.467" ry="2.462" fill="#fff"/><ellipse cx="425.269" cy="91.083" rx="2.467" ry="2.462" fill="#fff"/><ellipse cx="440.064" cy="91.083" rx="2.467" ry="2.462" fill="#fff"/><ellipse cx="454.863" cy="91.083" rx="2.467" ry="2.462" fill="#fff"/><ellipse cx="469.664" cy="91.083" rx="2.467" ry="2.462" fill="#fff"/><ellipse cx="484.463" cy="91.083" rx="2.467" ry="2.462" fill="#fff"/><ellipse cx="499.265" cy="91.083" rx="2.467" ry="2.462" fill="#fff"/><ellipse cx="410.465" cy="105.852" rx="2.467" ry="2.462" fill="#fff"/><ellipse cx="425.269" cy="105.852" rx="2.467" ry="2.462" fill="#fff"/><ellipse cx="440.064" cy="105.852" rx="2.467" ry="2.462" fill="#fff"/><ellipse cx="454.863" cy="105.852" rx="2.467" ry="2.462" fill="#fff"/><ellipse cx="469.664" cy="105.852" rx="2.467" ry="2.462" fill="#fff"/><ellipse cx="484.463" cy="105.852" rx="2.467" ry="2.462" fill="#fff"/><ellipse cx="499.265" cy="105.852" rx="2.467" ry="2.462" fill="#fff"/><ellipse cx="514.064" cy="105.852" rx="2.467" ry="2.462" fill="#fff"/><ellipse cx="410.465" cy="120.623" rx="2.467" ry="2.462" fill="#fff"/><ellipse cx="425.269" cy="120.623" rx="2.467" ry="2.462" fill="#fff"/><ellipse cx="440.064" cy="120.623" rx="2.467" ry="2.462" fill="#fff"/><ellipse cx="454.863" cy="120.623" rx="2.467" ry="2.462" fill="#fff"/><ellipse cx="469.664" cy="120.623" rx="2.467" ry="2.462" fill="#fff"/><ellipse cx="484.463" cy="120.623" rx="2.467" ry="2.462" fill="#fff"/><ellipse cx="499.265" cy="120.623" rx="2.467" ry="2.462" fill="#fff"/><ellipse cx="514.064" cy="120.623" rx="2.467" ry="2.462" fill="#fff"/><ellipse cx="410.465" cy="135.393" rx="2.467" ry="2.462" fill="#fff"/><ellipse cx="425.269" cy="135.393" rx="2.467" ry="2.462" fill="#fff"/><ellipse cx="440.064" cy="135.393" rx="2.467" ry="2.462" fill="#fff"/><ellipse cx="454.863" cy="135.393" rx="2.467" ry="2.462" fill="#fff"/><ellipse cx="469.664" cy="135.393" rx="2.467" ry="2.462" fill="#fff"/><ellipse cx="484.463" cy="135.393" rx="2.467" ry="2.462" fill="#fff"/><ellipse cx="499.265" cy="135.393" rx="2.467" ry="2.462" fill="#fff"/><ellipse cx="514.064" cy="135.393" rx="2.467" ry="2.462" fill="#fff"/><ellipse cx="410.465" cy="150.163" rx="2.467" ry="2.462" fill="#fff"/><ellipse cx="425.269" cy="150.163" rx="2.467" ry="2.462" fill="#fff"/><ellipse cx="440.064" cy="150.163" rx="2.467" ry="2.462" fill="#fff"/><ellipse cx="454.863" cy="150.163" rx="2.467" ry="2.462" fill="#fff"/><ellipse cx="469.664" cy="150.163" rx="2.467" ry="2.462" fill="#fff"/><ellipse cx="484.463" cy="150.163" rx="2.467" ry="2.462" fill="#fff"/><ellipse cx="499.265" cy="150.163" rx="2.467" ry="2.462" fill="#fff"/><ellipse cx="514.064" cy="150.163" rx="2.467" ry="2.462" fill="#fff"/><ellipse cx="410.465" cy="164.934" rx="2.467" ry="2.462" fill="#fff"/><ellipse cx="425.269" cy="164.934" rx="2.467" ry="2.462" fill="#fff"/><ellipse cx="440.064" cy="164.934" rx="2.467" ry="2.462" fill="#fff"/><ellipse cx="454.863" cy="164.934" rx="2.467" ry="2.462" fill="#fff"/><ellipse cx="469.664" cy="164.934" rx="2.467" ry="2.462" fill="#fff"/><ellipse cx="484.463" cy="164.934" rx="2.467" ry="2.462" fill="#fff"/><ellipse cx="499.265" cy="164.934" rx="2.467" ry="2.462" fill="#fff"/><ellipse cx="514.064" cy="164.934" rx="2.467" ry="2.462" fill="#fff"/><ellipse cx="528.271" cy="2.462" rx="2.467" ry="2.462" fill="#fff"/><ellipse cx="543.07" cy="2.462" rx="2.467" ry="2.462" fill="#fff"/><ellipse cx="557.867" cy="2.462" rx="2.467" ry="2.462" fill="#fff"/><ellipse cx="572.67" cy="2.462" rx="2.467" ry="2.462" fill="#fff"/><ellipse cx="528.271" cy="17.231" rx="2.467" ry="2.462" fill="#fff"/><ellipse cx="543.074" cy="17.231" rx="2.467" ry="2.462" fill="#fff"/><ellipse cx="557.867" cy="17.231" rx="2.467" ry="2.462" fill="#fff"/><ellipse cx="572.67" cy="17.231" rx="2.467" ry="2.462" fill="#fff"/><ellipse cx="528.271" cy="32.003" rx="2.467" ry="2.462" fill="#fff"/><ellipse cx="543.074" cy="32.003" rx="2.467" ry="2.462" fill="#fff"/><ellipse cx="557.867" cy="32.003" rx="2.467" ry="2.462" fill="#fff"/><ellipse cx="572.67" cy="32.003" rx="2.467" ry="2.462" fill="#fff"/><ellipse cx="528.271" cy="46.773" rx="2.467" ry="2.462" fill="#fff"/><ellipse cx="543.074" cy="46.773" rx="2.467" ry="2.462" fill="#fff"/><ellipse cx="557.867" cy="46.773" rx="2.467" ry="2.462" fill="#fff"/><ellipse cx="572.67" cy="46.773" rx="2.467" ry="2.462" fill="#fff"/><ellipse cx="528.271" cy="61.542" rx="2.467" ry="2.462" fill="#fff"/><ellipse cx="543.074" cy="61.542" rx="2.467" ry="2.462" fill="#fff"/><ellipse cx="557.867" cy="61.542" rx="2.467" ry="2.462" fill="#fff"/><ellipse cx="572.67" cy="61.541" rx="2.467" ry="2.462" fill="#fff"/><ellipse cx="528.271" cy="76.312" rx="2.467" ry="2.462" fill="#fff"/><ellipse cx="543.074" cy="76.312" rx="2.467" ry="2.462" fill="#fff"/><ellipse cx="557.867" cy="76.312" rx="2.467" ry="2.462" fill="#fff"/><ellipse cx="572.67" cy="76.312" rx="2.467" ry="2.462" fill="#fff"/><ellipse cx="528.271" cy="91.083" rx="2.467" ry="2.462" fill="#fff"/><ellipse cx="543.074" cy="91.083" rx="2.467" ry="2.462" fill="#fff"/><ellipse cx="557.867" cy="91.083" rx="2.467" ry="2.462" fill="#fff"/><ellipse cx="572.67" cy="91.083" rx="2.467" ry="2.462" fill="#fff"/><ellipse cx="543.074" cy="105.852" rx="2.467" ry="2.462" fill="#fff"/><ellipse cx="557.867" cy="105.852" rx="2.467" ry="2.462" fill="#fff"/><ellipse cx="572.67" cy="105.852" rx="2.467" ry="2.462" fill="#fff"/><ellipse cx="543.074" cy="120.623" rx="2.467" ry="2.462" fill="#fff"/><ellipse cx="557.867" cy="120.623" rx="2.467" ry="2.462" fill="#fff"/><ellipse cx="572.67" cy="120.623" rx="2.467" ry="2.462" fill="#fff"/><ellipse cx="543.074" cy="135.393" rx="2.467" ry="2.462" fill="#fff"/><ellipse cx="557.867" cy="135.393" rx="2.467" ry="2.462" fill="#fff"/><ellipse cx="572.67" cy="135.393" rx="2.467" ry="2.462" fill="#fff"/><ellipse cx="543.074" cy="150.163" rx="2.467" ry="2.462" fill="#fff"/><ellipse cx="557.867" cy="150.163" rx="2.467" ry="2.462" fill="#fff"/><ellipse cx="572.67" cy="150.163" rx="2.467" ry="2.462" fill="#fff"/><ellipse cx="543.074" cy="164.934" rx="2.467" ry="2.462" fill="#fff"/><ellipse cx="557.867" cy="164.934" rx="2.467" ry="2.462" fill="#fff"/><ellipse cx="572.67" cy="164.934" rx="2.467" ry="2.462" fill="#fff"/><ellipse cx="30.267" cy="207.462" rx="2.467" ry="2.462" fill="#fff"/><ellipse cx="45.064" cy="207.462" rx="2.467" ry="2.462" fill="#fff"/><ellipse cx="59.863" cy="207.462" rx="2.467" ry="2.462" fill="#fff"/><ellipse cx="74.664" cy="207.462" rx="2.467" ry="2.462" fill="#fff"/><ellipse cx="89.463" cy="207.462" rx="2.467" ry="2.462" fill="#fff"/><ellipse cx="104.265" cy="207.462" rx="2.467" ry="2.462" fill="#fff"/><ellipse cx="119.062" cy="207.462" rx="2.467" ry="2.462" fill="#fff"/><ellipse cx="30.269" cy="222.231" rx="2.467" ry="2.462" fill="#fff"/><ellipse cx="45.064" cy="222.231" rx="2.467" ry="2.462" fill="#fff"/><ellipse cx="59.863" cy="222.231" rx="2.467" ry="2.462" fill="#fff"/><ellipse cx="74.664" cy="222.231" rx="2.467" ry="2.462" fill="#fff"/><ellipse cx="89.463" cy="222.231" rx="2.467" ry="2.462" fill="#fff"/><ellipse cx="104.265" cy="222.231" rx="2.467" ry="2.462" fill="#fff"/><ellipse cx="119.064" cy="222.231" rx="2.467" ry="2.462" fill="#fff"/><ellipse cx="30.269" cy="237.003" rx="2.467" ry="2.462" fill="#fff"/><ellipse cx="45.064" cy="237.003" rx="2.467" ry="2.462" fill="#fff"/><ellipse cx="59.863" cy="237.003" rx="2.467" ry="2.462" fill="#fff"/><ellipse cx="74.664" cy="237.003" rx="2.467" ry="2.462" fill="#fff"/><ellipse cx="89.463" cy="237.003" rx="2.467" ry="2.462" fill="#fff"/><ellipse cx="104.265" cy="237.003" rx="2.467" ry="2.462" fill="#fff"/><ellipse cx="119.064" cy="237.003" rx="2.467" ry="2.462" fill="#fff"/><ellipse cx="45.064" cy="251.773" rx="2.467" ry="2.462" fill="#fff"/><ellipse cx="59.863" cy="251.773" rx="2.467" ry="2.462" fill="#fff"/><ellipse cx="74.664" cy="251.773" rx="2.467" ry="2.462" fill="#fff"/><ellipse cx="89.463" cy="251.773" rx="2.467" ry="2.462" fill="#fff"/><ellipse cx="104.265" cy="251.773" rx="2.467" ry="2.462" fill="#fff"/><ellipse cx="119.064" cy="251.773" rx="2.467" ry="2.462" fill="#fff"/><ellipse cx="45.064" cy="266.542" rx="2.467" ry="2.462" fill="#fff"/><ellipse cx="59.863" cy="266.542" rx="2.467" ry="2.462" fill="#fff"/><ellipse cx="74.664" cy="266.542" rx="2.467" ry="2.462" fill="#fff"/><ellipse cx="89.463" cy="266.542" rx="2.467" ry="2.462" fill="#fff"/><ellipse cx="104.265" cy="266.542" rx="2.467" ry="2.462" fill="#fff"/><ellipse cx="119.064" cy="266.542" rx="2.467" ry="2.462" fill="#fff"/><ellipse cx="30.269" cy="281.312" rx="2.467" ry="2.462" fill="#fff"/><ellipse cx="45.064" cy="281.312" rx="2.467" ry="2.462" fill="#fff"/><ellipse cx="59.863" cy="281.312" rx="2.467" ry="2.462" fill="#fff"/><ellipse cx="74.664" cy="281.312" rx="2.467" ry="2.462" fill="#fff"/><ellipse cx="89.463" cy="281.312" rx="2.467" ry="2.462" fill="#fff"/><ellipse cx="104.265" cy="281.312" rx="2.467" ry="2.462" fill="#fff"/><ellipse cx="119.064" cy="281.312" rx="2.467" ry="2.462" fill="#fff"/><ellipse cx="30.269" cy="296.083" rx="2.467" ry="2.462" fill="#fff"/><ellipse cx="59.863" cy="296.083" rx="2.467" ry="2.462" fill="#fff"/><ellipse cx="74.664" cy="296.083" rx="2.467" ry="2.462" fill="#fff"/><ellipse cx="89.463" cy="296.083" rx="2.467" ry="2.462" fill="#fff"/><ellipse cx="104.265" cy="296.083" rx="2.467" ry="2.462" fill="#fff"/><ellipse cx="119.064" cy="296.083" rx="2.467" ry="2.462" fill="#fff"/><ellipse cx="30.269" cy="310.852" rx="2.467" ry="2.462" fill="#fff"/><ellipse cx="45.064" cy="310.852" rx="2.467" ry="2.462" fill="#fff"/><ellipse cx="74.664" cy="310.852" rx="2.467" ry="2.462" fill="#fff"/><ellipse cx="89.463" cy="310.852" rx="2.467" ry="2.462" fill="#fff"/><ellipse cx="104.265" cy="310.852" rx="2.467" ry="2.462" fill="#fff"/><ellipse cx="119.064" cy="310.852" rx="2.467" ry="2.462" fill="#fff"/><ellipse cx="30.269" cy="325.623" rx="2.467" ry="2.462" fill="#fff"/><ellipse cx="45.064" cy="325.623" rx="2.467" ry="2.462" fill="#fff"/><ellipse cx="74.664" cy="325.623" rx="2.467" ry="2.462" fill="#fff"/><ellipse cx="89.463" cy="325.623" rx="2.467" ry="2.462" fill="#fff"/><ellipse cx="104.265" cy="325.623" rx="2.467" ry="2.462" fill="#fff"/><ellipse cx="119.064" cy="325.623" rx="2.467" ry="2.462" fill="#fff"/><ellipse cx="30.269" cy="340.393" rx="2.467" ry="2.462" fill="#fff"/><ellipse cx="45.064" cy="340.393" rx="2.467" ry="2.462" fill="#fff"/><ellipse cx="59.863" cy="340.393" rx="2.467" ry="2.462" fill="#fff"/><ellipse cx="74.664" cy="340.393" rx="2.467" ry="2.462" fill="#fff"/><ellipse cx="89.463" cy="340.393" rx="2.467" ry="2.462" fill="#fff"/><ellipse cx="104.265" cy="340.393" rx="2.467" ry="2.462" fill="#fff"/><ellipse cx="119.064" cy="340.393" rx="2.467" ry="2.462" fill="#fff"/><ellipse cx="30.269" cy="355.163" rx="2.467" ry="2.462" fill="#fff"/><ellipse cx="45.064" cy="355.163" rx="2.467" ry="2.462" fill="#fff"/><ellipse cx="59.863" cy="355.163" rx="2.467" ry="2.462" fill="#fff"/><ellipse cx="74.664" cy="355.163" rx="2.467" ry="2.462" fill="#fff"/><ellipse cx="89.463" cy="355.163" rx="2.467" ry="2.462" fill="#fff"/><ellipse cx="104.265" cy="355.163" rx="2.467" ry="2.462" fill="#fff"/><ellipse cx="119.064" cy="355.163" rx="2.467" ry="2.462" fill="#fff"/><ellipse cx="15.467" cy="207.462" rx="2.467" ry="2.462" fill="#fff"/><ellipse cx="15.467" cy="222.231" rx="2.467" ry="2.462" fill="#fff"/><ellipse cx="15.467" cy="237.003" rx="2.467" ry="2.462" fill="#fff"/><ellipse cx="15.467" cy="251.773" rx="2.467" ry="2.462" fill="#fff"/><ellipse cx="15.467" cy="266.542" rx="2.467" ry="2.462" fill="#fff"/><ellipse cx="15.467" cy="281.312" rx="2.467" ry="2.462" fill="#fff"/><ellipse cx="15.467" cy="296.083" rx="2.467" ry="2.462" fill="#fff"/><ellipse cx="15.467" cy="310.852" rx="2.467" ry="2.462" fill="#fff"/><ellipse cx="15.467" cy="325.623" rx="2.467" ry="2.462" fill="#fff"/><ellipse cx="15.467" cy="340.393" rx="2.467" ry="2.462" fill="#fff"/><ellipse cx="15.467" cy="355.163" rx="2.467" ry="2.462" fill="#fff"/><ellipse cx="15.467" cy="369.934" rx="2.467" ry="2.462" fill="#fff"/><ellipse cx="2.513" cy="207.462" rx="2.467" ry="2.462" fill="#fff"/><ellipse cx="2.513" cy="222.231" rx="2.467" ry="2.462" fill="#fff"/><ellipse cx="2.513" cy="237.003" rx="2.467" ry="2.462" fill="#fff"/><ellipse cx="2.513" cy="251.773" rx="2.467" ry="2.462" fill="#fff"/><ellipse cx="2.513" cy="266.542" rx="2.467" ry="2.462" fill="#fff"/><ellipse cx="2.513" cy="281.312" rx="2.467" ry="2.462" fill="#fff"/><ellipse cx="2.513" cy="296.083" rx="2.467" ry="2.462" fill="#fff"/><ellipse cx="2.513" cy="310.852" rx="2.467" ry="2.462" fill="#fff"/><ellipse cx="2.513" cy="325.623" rx="2.467" ry="2.462" fill="#fff"/><ellipse cx="2.513" cy="340.393" rx="2.467" ry="2.462" fill="#fff"/><ellipse cx="2.513" cy="355.163" rx="2.467" ry="2.462" fill="#fff"/><ellipse cx="2.513" cy="369.934" rx="2.467" ry="2.462" fill="#fff"/><ellipse cx="30.269" cy="369.934" rx="2.467" ry="2.462" fill="#fff"/><ellipse cx="45.064" cy="369.934" rx="2.467" ry="2.462" fill="#fff"/><ellipse cx="59.863" cy="369.934" rx="2.467" ry="2.462" fill="#fff"/><ellipse cx="74.664" cy="369.934" rx="2.467" ry="2.462" fill="#fff"/><ellipse cx="89.463" cy="369.934" rx="2.467" ry="2.462" fill="#fff"/><ellipse cx="104.265" cy="369.934" rx="2.467" ry="2.462" fill="#fff"/><ellipse cx="119.064" cy="369.934" rx="2.467" ry="2.462" fill="#fff"/><ellipse cx="133.271" cy="207.462" rx="2.467" ry="2.462" fill="#fff"/><ellipse cx="148.07" cy="207.462" rx="2.467" ry="2.462" fill="#fff"/><ellipse cx="162.867" cy="207.462" rx="2.467" ry="2.462" fill="#fff"/><ellipse cx="177.67" cy="207.462" rx="2.467" ry="2.462" fill="#fff"/><ellipse cx="133.271" cy="222.231" rx="2.467" ry="2.462" fill="#fff"/><ellipse cx="148.074" cy="222.231" rx="2.467" ry="2.462" fill="#fff"/><ellipse cx="162.867" cy="222.231" rx="2.467" ry="2.462" fill="#fff"/><ellipse cx="177.67" cy="222.231" rx="2.467" ry="2.462" fill="#fff"/><ellipse cx="133.271" cy="237.003" rx="2.467" ry="2.462" fill="#fff"/><ellipse cx="148.074" cy="237.003" rx="2.467" ry="2.462" fill="#fff"/><ellipse cx="162.867" cy="237.003" rx="2.467" ry="2.462" fill="#fff"/><ellipse cx="177.67" cy="237.003" rx="2.467" ry="2.462" fill="#fff"/><ellipse cx="133.271" cy="251.773" rx="2.467" ry="2.462" fill="#fff"/><ellipse cx="148.074" cy="251.773" rx="2.467" ry="2.462" fill="#fff"/><ellipse cx="162.867" cy="251.773" rx="2.467" ry="2.462" fill="#fff"/><ellipse cx="177.67" cy="251.773" rx="2.467" ry="2.462" fill="#fff"/><ellipse cx="133.271" cy="266.542" rx="2.467" ry="2.462" fill="#fff"/><ellipse cx="148.074" cy="266.542" rx="2.467" ry="2.462" fill="#fff"/><ellipse cx="162.867" cy="266.542" rx="2.467" ry="2.462" fill="#fff"/><ellipse cx="177.67" cy="266.542" rx="2.467" ry="2.462" fill="#fff"/><ellipse cx="133.271" cy="281.312" rx="2.467" ry="2.462" fill="#fff"/><ellipse cx="148.074" cy="281.312" rx="2.467" ry="2.462" fill="#fff"/><ellipse cx="162.867" cy="281.312" rx="2.467" ry="2.462" fill="#fff"/><ellipse cx="177.67" cy="281.312" rx="2.467" ry="2.462" fill="#fff"/><ellipse cx="133.271" cy="296.083" rx="2.467" ry="2.462" fill="#fff"/><ellipse cx="148.074" cy="296.083" rx="2.467" ry="2.462" fill="#fff"/><ellipse cx="162.867" cy="296.083" rx="2.467" ry="2.462" fill="#fff"/><ellipse cx="177.67" cy="296.083" rx="2.467" ry="2.462" fill="#fff"/><ellipse cx="133.271" cy="310.852" rx="2.467" ry="2.462" fill="#fff"/><ellipse cx="148.074" cy="310.852" rx="2.467" ry="2.462" fill="#fff"/><ellipse cx="162.867" cy="310.852" rx="2.467" ry="2.462" fill="#fff"/><ellipse cx="177.67" cy="310.852" rx="2.467" ry="2.462" fill="#fff"/><ellipse cx="133.271" cy="325.623" rx="2.467" ry="2.462" fill="#fff"/><ellipse cx="148.074" cy="325.623" rx="2.467" ry="2.462" fill="#fff"/><ellipse cx="162.867" cy="325.623" rx="2.467" ry="2.462" fill="#fff"/><ellipse cx="177.67" cy="325.623" rx="2.467" ry="2.462" fill="#fff"/><ellipse cx="133.271" cy="340.393" rx="2.467" ry="2.462" fill="#fff"/><ellipse cx="148.074" cy="340.393" rx="2.467" ry="2.462" fill="#fff"/><ellipse cx="162.867" cy="340.393" rx="2.467" ry="2.462" fill="#fff"/><ellipse cx="177.67" cy="340.393" rx="2.467" ry="2.462" fill="#fff"/><ellipse cx="133.271" cy="355.163" rx="2.467" ry="2.462" fill="#fff"/><ellipse cx="148.074" cy="355.163" rx="2.467" ry="2.462" fill="#fff"/><ellipse cx="162.867" cy="355.163" rx="2.467" ry="2.462" fill="#fff"/><ellipse cx="133.271" cy="369.934" rx="2.467" ry="2.462" fill="#fff"/><ellipse cx="148.074" cy="369.934" rx="2.467" ry="2.462" fill="#fff"/><ellipse cx="162.867" cy="369.934" rx="2.467" ry="2.462" fill="#fff"/></svg>